<?xml version="1.0" encoding="utf-8"?>
<!-- Generator: Adobe Illustrator 16.0.0, SVG Export Plug-In . SVG Version: 6.00 Build 0)  -->
<!DOCTYPE svg PUBLIC "-//W3C//DTD SVG 1.1 Tiny//EN" "http://www.w3.org/Graphics/SVG/1.1/DTD/svg11-tiny.dtd">
<svg version="1.1" baseProfile="tiny" xmlns="http://www.w3.org/2000/svg" xmlns:xlink="http://www.w3.org/1999/xlink" x="0px"
	 y="0px" width="101.667px" height="52.667px" viewBox="0 0 101.667 52.667" xml:space="preserve">
<g id="Layer_3">
</g>
<g id="Layer_4">
</g>
<g id="Layer_5">
</g>
<g id="Layer_6">
	<g>
		<g>
			<path fill="none" stroke="#000000" stroke-width="0.8" d="M51.745,36.124v7.68c0,4.16-3.371,7.531-7.529,7.531H9.63
				c-4.159,0-7.53-3.371-7.53-7.531V9.22c0-4.16,3.371-7.531,7.53-7.531h34.585c4.158,0,7.529,3.372,7.529,7.531v4.779"/>
		</g>
	</g>
	<g>
		<path fill="none" stroke="#000000" stroke-width="1.5" d="M51.311,36.75"/>
		<path fill="#FFFFFF" d="M51.311,36.75"/>
	</g>
	<g>
		<path fill="#F39200" d="M12.948,33.583v-16h7.859c1.842,0,3.097,0.295,3.764,0.886c0.667,0.591,1.001,1.703,1.001,3.338
			c0,1.979-0.784,3.145-2.352,3.497v0.059c1.838,0.281,2.758,1.55,2.758,3.806c0,1.632-0.353,2.776-1.058,3.432
			c-0.706,0.656-1.936,0.983-3.692,0.983H12.948z M15.979,24.302h3.715c1.196,0,1.959-0.132,2.29-0.398
			c0.33-0.265,0.496-0.878,0.496-1.838c0-1.28-0.722-1.92-2.164-1.92h-4.336V24.302z M15.979,31.021h3.328l1.067-0.023
			c1.024,0,1.699-0.144,2.024-0.432c0.324-0.288,0.487-0.895,0.487-1.82c0-0.964-0.17-1.571-0.511-1.82s-1.179-0.374-2.517-0.374
			h-3.879V31.021z"/>
		<path fill="#F39200" d="M33.002,22.239c2.164,0,3.582,0.346,4.254,1.038s1.008,2.152,1.008,4.38c0,2.486-0.328,4.116-0.984,4.89
			s-2.039,1.161-4.148,1.161c-2.289,0-3.771-0.359-4.447-1.079s-1.014-2.302-1.014-4.75c0-2.353,0.332-3.881,0.996-4.585
			S30.776,22.239,33.002,22.239z M32.979,24.364c-1.117,0-1.828,0.201-2.133,0.604s-0.457,1.342-0.457,2.818
			c0,1.688,0.145,2.742,0.434,3.164s1.012,0.633,2.168,0.633c1.117,0,1.822-0.223,2.115-0.668s0.439-1.516,0.439-3.211
			c0-1.43-0.152-2.344-0.457-2.742S34.081,24.364,32.979,24.364z"/>
		<path fill="#F39200" d="M49.674,22.364l-3.258,5.281l3.621,5.938h-3.211l-2.25-4.072l-2.191,4.072h-3.293l3.668-5.903
			l-3.234-5.316h3.199l1.852,3.556l1.898-3.556H49.674z"/>
		<path fill="#B2B2B2" d="M53.956,17.583v6.635l0.059,0.012c0.5-1.327,1.65-1.991,3.449-1.991c2.619,0,3.93,1.239,3.93,3.716v7.628
			h-2.688v-6.889v-0.363c0-1.312-0.668-1.967-2.006-1.967c-1.83,0-2.744,0.949-2.744,2.847v6.372h-2.688v-16H53.956z"/>
		<path fill="#B2B2B2" d="M68.944,22.239c2.164,0,3.582,0.346,4.254,1.038s1.008,2.152,1.008,4.38c0,2.486-0.328,4.116-0.984,4.89
			s-2.039,1.161-4.148,1.161c-2.289,0-3.771-0.359-4.447-1.079s-1.014-2.302-1.014-4.75c0-2.353,0.332-3.881,0.996-4.585
			S66.717,22.239,68.944,22.239z M68.92,24.364c-1.117,0-1.828,0.201-2.133,0.604s-0.457,1.342-0.457,2.818
			c0,1.688,0.145,2.742,0.434,3.164s1.012,0.633,2.168,0.633c1.117,0,1.822-0.223,2.115-0.668s0.439-1.516,0.439-3.211
			c0-1.43-0.152-2.344-0.457-2.742S70.022,24.364,68.92,24.364z"/>
		<path fill="#B2B2B2" d="M76.534,22.364h2.688l-0.164,1.573l0.059,0.012c0.641-1.161,1.649-1.741,3.025-1.741
			c1.97,0,2.955,1.239,2.955,3.717l-0.004,0.783h-2.531c0.023-0.303,0.035-0.5,0.035-0.594c0-1.188-0.463-1.781-1.39-1.781
			c-1.323,0-1.985,0.882-1.985,2.645v6.605h-2.688V22.364z"/>
		<path fill="#B2B2B2" d="M86.553,22.364h2.664l-0.105,1.889l0.059,0.012c0.524-1.351,1.699-2.026,3.525-2.026
			c2.654,0,3.982,1.235,3.982,3.704v7.64h-2.688v-6.759v-0.422l-0.059-0.787c-0.125-0.833-0.783-1.25-1.975-1.25
			c-1.812,0-2.717,0.855-2.717,2.565v6.654h-2.688V22.364z"/>
	</g>
	<g>
		<path fill="#B2B2B2" d="M36.698,36.646v1.797h2.703v0.516h-2.703v1.984h2.813v0.516h-3.422V36.13h3.422v0.516H36.698z"/>
		<path fill="#B2B2B2" d="M40.292,41.458V36.13h2.477c0.765,0,1.282,0.168,1.554,0.504s0.407,0.979,0.407,1.928
			c0,1.155-0.121,1.928-0.362,2.314c-0.241,0.389-0.724,0.582-1.446,0.582H40.292z M40.901,40.942h1.738
			c0.638,0,1.049-0.127,1.234-0.381c0.185-0.254,0.277-0.82,0.277-1.699c0-0.965-0.08-1.575-0.24-1.832
			c-0.16-0.256-0.544-0.385-1.15-0.385h-1.859V40.942z"/>
		<path fill="#B2B2B2" d="M48.963,36.13h0.645l-1.887,5.328h-0.859l-1.906-5.328h0.641l1.422,4.023l0.141,0.41
			c0.052,0.159,0.095,0.296,0.129,0.41h0.016c0.078-0.263,0.165-0.533,0.262-0.813L48.963,36.13z"/>
	</g>
	<g>
		<path fill="#F39200" d="M97.333,22.111V19.81h1.097c0.247,0,0.421,0.049,0.521,0.147s0.151,0.268,0.151,0.51
			c0,0.212-0.027,0.361-0.082,0.445s-0.159,0.138-0.313,0.163v0.005c0.243,0.018,0.364,0.166,0.364,0.444v0.587h-0.258v-0.528
			c0-0.268-0.117-0.402-0.35-0.402h-0.087H97.59v0.93H97.333z M97.59,20.962h0.753c0.197,0,0.333-0.03,0.404-0.09
			c0.072-0.061,0.108-0.174,0.108-0.341c0-0.208-0.026-0.345-0.08-0.408s-0.168-0.095-0.344-0.095H97.59V20.962z"/>
	</g>
	<circle fill="none" stroke="#F39200" stroke-width="0.3" cx="98.192" cy="20.979" r="1.908"/>
</g>
</svg>
